<svg width="25" height="29" viewBox="0 0 25 29" fill="none" xmlns="http://www.w3.org/2000/svg">
<path fill-rule="evenodd" clip-rule="evenodd" d="M14.3087 3.19271L14.6561 0.394986C14.5444 0.350438 14.4308 0.309402 14.3157 0.272002C13.772 0.0953785 13.1921 0 12.5902 0C11.9165 0 11.2705 0.119471 10.6719 0.338536C10.6058 0.362711 10.5402 0.388126 10.4753 0.41474L10.8222 3.20832C10.6596 3.25973 10.4999 3.31804 10.3436 3.38292L9.67089 0.823115C8.1708 1.74384 7.1318 3.3528 6.98506 5.21516C6.97832 5.30074 6.97346 5.38682 6.97055 5.47344C6.96912 5.51567 6.96813 5.55803 6.96762 5.60052C6.53808 5.79383 6.29623 6.02877 6.29623 6.30606C6.29623 6.70076 6.5211 6.97699 6.92215 7.1702C6.75077 7.73198 6.65849 8.32896 6.65849 8.94779C6.65849 12.2676 9.31437 14.9589 12.5906 14.9589C15.8668 14.9589 18.5226 12.2676 18.5226 8.94779C18.5226 8.32896 18.4304 7.73198 18.259 7.1702C18.66 6.97699 18.8849 6.70076 18.8849 6.30606C18.8849 6.0286 18.6427 5.79392 18.2127 5.60052C18.1882 3.5574 17.0922 1.77434 15.4652 0.796254L14.7905 3.36362C14.6331 3.2999 14.4724 3.24282 14.3087 3.19271ZM9.23962 15.9684C7.65472 16.1366 3.97774 17.4 1.94906 21.1076C-0.0796225 24.8152 0.560377 27.6387 1.13396 28.587C1.78302 28.8623 3.52491 29.156 5.3 28.1282C6.42733 27.4754 6.42108 26.5413 6.07694 25.7585C5.66949 25.5419 5.37628 25.1346 5.31285 24.6536C5.30855 24.6493 5.30427 24.6451 5.3 24.6408L5.31076 24.6371C5.30366 24.5782 5.3 24.5182 5.3 24.4573V21.0158C5.3 20.2049 5.94876 19.5475 6.74906 19.5475H18.2509C19.0512 19.5475 19.7 20.2049 19.7 21.0158V24.4573C19.7 25.0037 19.4055 25.4803 18.9686 25.7332C18.6936 26.5212 18.7869 27.4684 19.9264 28.1282C21.6247 29.1115 23.0991 28.7593 23.7391 28.6064C23.768 28.5995 23.7953 28.593 23.8208 28.587C24.3943 27.6387 25.0343 24.8152 23.0057 21.1076C20.977 17.4 17.3 16.1366 15.7151 15.9684C15.7151 15.9684 13.7693 17.3338 12.3642 17.2991C11.0409 17.2664 9.23962 15.9684 9.23962 15.9684ZM16.3491 21.4747H8.65094V22.3924H16.3491V21.4747ZM8.65094 23.5854H13.3604V24.5032H8.65094V23.5854ZM16.3491 25.6962H8.65094V26.6139H16.3491V25.6962Z" fill="black"/>
</svg>
