<svg width="25" height="26" viewBox="0 0 25 26" fill="none" xmlns="http://www.w3.org/2000/svg">
<path fill-rule="evenodd" clip-rule="evenodd" d="M18.5226 5.99648C18.5226 9.30824 15.8668 11.993 12.5906 11.993C9.31437 11.993 6.65849 9.30824 6.65849 5.99648C6.65849 2.68471 9.31437 0 12.5906 0C15.8668 0 18.5226 2.68471 18.5226 5.99648ZM9.23962 13C7.65472 13.1678 3.97774 14.4282 1.94906 18.1268C-0.0796226 21.8254 0.560377 24.642 1.13396 25.588C1.73801 25.8436 3.28857 26.1151 4.93153 25.325L4.92983 25.3134C5.81477 24.7808 6.19517 24.2146 6.27966 23.6828C6.29545 23.0126 5.90048 22.3357 5.50843 21.8764C5.42352 21.7971 5.33781 21.7259 5.25472 21.664C6.28627 18.5953 9.1607 16.3873 12.5453 16.3873C15.9299 16.3873 18.8043 18.5953 19.8358 21.664C19.1631 22.2792 18.3066 23.6501 19.4534 24.7909C19.5857 24.9102 19.7424 25.024 19.9264 25.1303C21.6247 26.1113 23.0991 25.7599 23.7391 25.6074C23.768 25.6005 23.7953 25.594 23.8208 25.588C24.3943 24.642 25.0343 21.8254 23.0057 18.1268C20.977 14.4282 17.3 13.1678 15.7151 13C15.7151 13 13.7693 14.3621 12.3642 14.3275C11.0409 14.2949 9.23962 13 9.23962 13ZM17.0529 20.7839C17.7487 21.729 18.1604 22.9004 18.1604 24.169C18.1604 24.9495 16.7788 25.4533 14.8006 25.6617L14.3554 25.2116C14.5291 24.9042 14.6283 24.5483 14.6283 24.169C14.6283 23.8921 14.5754 23.6276 14.4793 23.3854L17.0529 20.7839ZM13.4702 22.2818L16.0169 19.7075C15.0615 18.9468 13.8558 18.493 12.5453 18.493C11.193 18.493 9.95241 18.9762 8.9832 19.7811L11.5139 22.3392C11.818 22.1637 12.17 22.0634 12.5453 22.0634C12.8775 22.0634 13.1915 22.142 13.4702 22.2818ZM6.93019 24.169C6.93019 22.9428 7.31485 21.8074 7.96885 20.8794L10.5675 23.5063C10.4992 23.7147 10.4623 23.9375 10.4623 24.169C10.4623 24.5048 10.54 24.8223 10.6784 25.104L10.1427 25.6455C8.24353 25.4279 6.93019 24.93 6.93019 24.169ZM12.5453 25.1761C13.0955 25.1761 13.5415 24.7252 13.5415 24.169C13.5415 23.6128 13.0955 23.162 12.5453 23.162C11.9951 23.162 11.5491 23.6128 11.5491 24.169C11.5491 24.7252 11.9951 25.1761 12.5453 25.1761Z" fill="black"/>
</svg>
