<svg class="w-4 h-4 fill-blue-600 mr-1" width="18" height="13" viewBox="0 0 18 13" fill="none" xmlns="http://www.w3.org/2000/svg">
<path d="M13.8536 4.5708L13.6813 4.50909L12.222 1.77309C11.9479 1.25892 11.5392 0.828921 11.0396 0.52908C10.5401 0.229238 9.96837 0.0708318 9.38571 0.0708008H5.71114C5.03637 0.0707732 4.37869 0.283106 3.83133 0.67771C3.28396 1.07231 2.87466 1.62917 2.66143 2.26937L1.96586 4.35609C1.38311 4.60171 0.885769 5.01377 0.536089 5.54069C0.186409 6.06761 -6.89867e-05 6.68598 1.91447e-08 7.31837V8.74937C1.91447e-08 9.66223 0.543857 10.4465 1.32429 10.8001C1.42535 11.3791 1.72176 11.9061 2.16413 12.2932C2.6065 12.6802 3.16814 12.9041 3.75549 12.9274C4.34284 12.9507 4.92044 12.772 5.39209 12.4212C5.86373 12.0704 6.20095 11.5686 6.34757 10.9994H11.6524C11.799 11.5686 12.1363 12.0704 12.6079 12.4212C13.0796 12.772 13.6572 12.9507 14.2445 12.9274C14.8319 12.9041 15.3935 12.6802 15.8359 12.2932C16.2782 11.9061 16.5746 11.3791 16.6757 10.8001C17.0704 10.6219 17.4052 10.3337 17.6401 9.96994C17.875 9.60618 18 9.18238 18 8.74937V8.31352C17.9999 7.64999 17.7945 7.00275 17.4119 6.46063C17.0293 5.91851 16.4883 5.50807 15.8631 5.28566L13.9217 4.59523V4.5708H13.8536ZM3.88029 2.67566C4.00828 2.29137 4.25402 1.95714 4.58264 1.72036C4.91127 1.48358 5.3061 1.35628 5.71114 1.35652H7.07143V4.5708H3.249L3.88029 2.67566ZM12.2567 4.5708H8.35714V1.35652H9.38571C9.73534 1.35639 10.0784 1.45131 10.3783 1.63113C10.6781 1.81095 10.9234 2.06889 11.088 2.37737L12.258 4.5708H12.2567ZM2.57143 10.3565C2.57143 10.0155 2.70689 9.6885 2.94801 9.44738C3.18912 9.20626 3.51615 9.0708 3.85714 9.0708C4.19814 9.0708 4.52516 9.20626 4.76628 9.44738C5.0074 9.6885 5.14286 10.0155 5.14286 10.3565C5.14286 10.6975 5.0074 11.0245 4.76628 11.2657C4.52516 11.5068 4.19814 11.6422 3.85714 11.6422C3.51615 11.6422 3.18912 11.5068 2.94801 11.2657C2.70689 11.0245 2.57143 10.6975 2.57143 10.3565ZM14.1429 9.0708C14.4838 9.0708 14.8109 9.20626 15.052 9.44738C15.2931 9.6885 15.4286 10.0155 15.4286 10.3565C15.4286 10.6975 15.2931 11.0245 15.052 11.2657C14.8109 11.5068 14.4838 11.6422 14.1429 11.6422C13.8019 11.6422 13.4748 11.5068 13.2337 11.2657C12.9926 11.0245 12.8571 10.6975 12.8571 10.3565C12.8571 10.0155 12.9926 9.6885 13.2337 9.44738C13.4748 9.20626 13.8019 9.0708 14.1429 9.0708Z"/>
</svg>
