<svg width="25" height="27" viewBox="0 0 25 27" fill="none" xmlns="http://www.w3.org/2000/svg">
<path fill-rule="evenodd" clip-rule="evenodd" d="M18.5226 6.22711C18.5226 9.66625 15.8668 12.4542 12.5906 12.4542C9.31437 12.4542 6.65849 9.66625 6.65849 6.22711C6.65849 2.78797 9.31437 0 12.5906 0C15.8668 0 18.5226 2.78797 18.5226 6.22711ZM9.23962 13.5C7.65472 13.6743 3.97774 14.9831 1.94906 18.8239C-0.0796225 22.6648 0.560377 25.5898 1.13396 26.5722C1.78302 26.8574 3.52491 27.1616 5.3 26.0968C6.42733 25.4206 6.42108 24.453 6.07694 23.642C5.66949 23.4176 5.37628 22.9957 5.31285 22.4974C5.30855 22.493 5.30427 22.4885 5.3 22.4842L5.31076 22.4803C5.30366 22.4193 5.3 22.3571 5.3 22.294V18.7289C5.3 17.8888 5.94876 17.2077 6.74906 17.2077H18.2509C19.0512 17.2077 19.7 17.8888 19.7 18.7289V22.294C19.7 22.86 19.4055 23.3538 18.9686 23.6158C18.6936 24.4321 18.7869 25.4133 19.9264 26.0968C21.6247 27.1155 23.0991 26.7506 23.7391 26.5923C23.768 26.5851 23.7953 26.5784 23.8208 26.5722C24.3943 25.5898 25.0343 22.6648 23.0057 18.8239C20.977 14.9831 17.3 13.6743 15.7151 13.5C15.7151 13.5 13.7693 14.9145 12.3642 14.8785C11.0409 14.8447 9.23962 13.5 9.23962 13.5ZM16.3491 19.2042H8.65094V20.1549H16.3491V19.2042ZM8.65094 21.3908H13.3604V22.3415H8.65094V21.3908ZM16.3491 23.5775H8.65094V24.5282H16.3491V23.5775Z" fill="black"/>
</svg>
