<svg width="25" height="29" viewBox="0 0 25 29" fill="none" xmlns="http://www.w3.org/2000/svg">
<path fill-rule="evenodd" clip-rule="evenodd" d="M14.5966 0.394986L14.2487 3.19271C14.4126 3.24282 14.5735 3.2999 14.7311 3.36362L15.4068 0.796254C17.0362 1.77434 18.1337 3.5574 18.1583 5.60052C18.5889 5.79392 18.8315 6.0286 18.8315 6.30606C18.8315 6.70076 18.6063 6.97699 18.2046 7.1702C18.3763 7.73198 18.4687 8.32896 18.4687 8.94779C18.4687 12.2676 15.809 14.9589 12.528 14.9589C9.24711 14.9589 6.58739 12.2676 6.58739 8.94779C6.58739 8.32896 6.6798 7.73198 6.85143 7.1702C6.4498 6.97699 6.2246 6.70076 6.2246 6.30606C6.2246 6.02877 6.46681 5.79383 6.89697 5.60052C6.89748 5.55803 6.89847 5.51567 6.8999 5.47344C6.90282 5.38682 6.90768 5.30074 6.91443 5.21516C7.06139 3.3528 8.10189 1.74384 9.60414 0.823115L10.2778 3.38292C10.4343 3.31804 10.5942 3.25973 10.7571 3.20832L10.4097 0.41474C10.4747 0.388126 10.5404 0.362711 10.6066 0.338536C11.2061 0.119471 11.853 0 12.5276 0C13.1305 0 13.7111 0.0953786 14.2557 0.272002C14.371 0.309402 14.4847 0.350438 14.5966 0.394986ZM1.9479 21.1076C3.97951 17.4 7.66181 16.1366 9.249 15.9684V19.584C9.249 19.8619 9.31138 20.1362 9.43142 20.3862L10.8135 23.2642L11.3601 23.6169L11.0753 21.5579L12.1075 19.6181L11.4492 18.9996C11.2367 18.7999 11.2367 18.4596 11.4492 18.2599L12.392 17.3741L13.3347 18.2599C13.5473 18.4596 13.5473 18.7999 13.3347 18.9996L12.6765 19.6181L13.7087 21.5579L13.4156 23.6764L13.9722 23.356L15.3687 20.5825C15.4986 20.3244 15.5664 20.0389 15.5664 19.7493V15.9684C17.1536 16.1366 21.0033 17.4 23.0349 21.1076C23.9079 22.7007 24.307 24.382 24.4782 25.7815C24.7023 27.6128 23.1664 29 21.3427 29H3.65101C1.84221 29 0.312714 27.634 0.518643 25.8156C0.677901 24.4094 1.06781 22.7137 1.9479 21.1076Z" fill="black"/>
</svg>
